<svg viewBox="0 0 454 71" xmlns="http://www.w3.org/2000/svg" fill-rule="evenodd" clip-rule="evenodd" stroke-linejoin="round" stroke-miterlimit="1.414"><g fill="#25222b" fill-rule="nonzero"><path d="M32.527 70.72c-4.334 0-8.484-.712-12.436-2.149s-7.413-3.6-10.382-6.504c-2.977-2.903-5.338-6.54-7.083-10.917C.874 46.78.001 41.69.001 35.884c0-5.733.91-10.822 2.728-15.265 1.818-4.444 4.252-8.183 7.295-11.226 3.043-3.043 6.54-5.374 10.493-6.98C24.469.807 28.61.001 32.944.001c4.554 0 8.608.894 12.18 2.676 3.563 1.782 6.569 3.9 9.018 6.35l-9.444 11.54c-1.68-1.473-3.41-2.676-5.191-3.622-1.782-.945-3.828-1.415-6.137-1.415-2.031 0-3.938.455-5.72 1.364-1.788.91-3.357 2.2-4.721 3.879-1.364 1.679-2.45 3.746-3.256 6.195-.806 2.45-1.202 5.214-1.202 8.286 0 6.437 1.342 11.372 4.04 14.796 2.69 3.431 6.24 5.14 10.646 5.14 2.662 0 5.023-.572 7.083-1.73 2.068-1.152 3.827-2.537 5.301-4.143l9.444 11.335c-2.94 3.358-6.313 5.873-10.126 7.552-3.812 1.68-7.926 2.515-12.332 2.515z"/><path d="M85.831 70.72c-4.758 0-9.077-.8-12.956-2.413-3.886-1.606-7.207-3.93-9.971-6.973-2.765-3.043-4.913-6.79-6.453-11.233-1.54-4.436-2.31-9.458-2.31-15.053 0-5.601.77-10.58 2.31-14.957 1.54-4.37 3.688-8.044 6.453-11.013 2.764-2.977 6.085-5.228 9.971-6.768C76.755.77 81.073 0 85.831 0c4.686 0 8.99.77 12.905 2.31 3.923 1.54 7.259 3.813 10.023 6.82 2.764 3.005 4.912 6.679 6.452 11.02 1.54 4.333 2.31 9.297 2.31 14.898 0 5.595-.77 10.617-2.31 15.053-1.54 4.444-3.688 8.19-6.452 11.233-2.764 3.043-6.1 5.367-10.023 6.973-3.915 1.613-8.22 2.412-12.905 2.412zm0-15.53c4.128 0 7.362-1.797 9.708-5.404 2.346-3.6 3.512-8.513 3.512-14.738s-1.166-11.034-3.512-14.43c-2.346-3.394-5.58-5.088-9.708-5.088s-7.361 1.694-9.707 5.089c-2.34 3.395-3.513 8.204-3.513 14.43 0 6.224 1.174 11.137 3.513 14.737 2.346 3.607 5.58 5.404 9.707 5.404zm37.563 14.276V1.262h25.816c3.637 0 7.12.345 10.441 1.048 3.322.697 6.225 1.885 8.711 3.564 2.478 1.679 4.458 3.937 5.924 6.767 1.474 2.838 2.207 6.387 2.207 10.654 0 4.898-.997 8.953-2.991 12.171-1.995 3.22-4.67 5.734-8.029 7.552l14.796 26.448h-20.148l-11.754-22.877h-6.921v22.877h-18.052zm18.052-37.145h6.503c7.274 0 10.918-3.014 10.918-9.026 0-2.94-.931-4.964-2.786-6.086-1.855-1.121-4.561-1.679-8.132-1.679h-6.503v16.79zm42.812 37.145V1.262h44.066v15.104h-26.021v10.705h22.245v15.112h-22.245v12.171h27.07v15.112h-45.115z"/></g><path d="M249.637 66.651c-4.232-1.388-7.61-3.26-10.137-5.6-.925-.866-1.388-1.944-1.388-3.24 0-.866.244-1.62.74-2.268.49-.648 1.078-.972 1.76-.972.8 0 1.665.337 2.591 1.018 5.74 4.444 12.279 6.665 19.625 6.665 5.303 0 9.376-1.018 12.219-3.055 2.837-2.036 4.258-4.939 4.258-8.701 0-2.162-.68-3.908-2.036-5.23-1.362-1.33-3.148-2.394-5.37-3.194-2.221-.807-5.216-1.64-8.979-2.5-5.064-1.176-9.21-2.406-12.45-3.702-3.24-1.296-5.865-3.147-7.869-5.554-2.01-2.407-3.008-5.554-3.008-9.442 0-3.703.998-6.99 3.008-9.859 2.004-2.87 4.814-5.091 8.424-6.665 3.61-1.574 7.73-2.36 12.358-2.36 4.318 0 8.345.66 12.08 1.99 3.73 1.329 6.864 3.227 9.396 5.693.986.985 1.481 2.07 1.481 3.24 0 .866-.25 1.62-.74 2.268-.496.648-1.085.972-1.759.972-.681 0-1.574-.338-2.684-1.019-3.029-2.466-5.832-4.198-8.424-5.183-2.592-.986-5.713-1.482-9.35-1.482-5.124 0-9.105 1.065-11.941 3.194-2.843 2.13-4.258 5.105-4.258 8.933 0 3.266 1.25 5.72 3.749 7.36 2.499 1.632 6.34 3.067 11.525 4.304 5.613 1.355 10.023 2.605 13.237 3.749 3.207 1.137 5.878 2.85 8.007 5.137 2.13 2.282 3.194 5.336 3.194 9.165 0 3.636-1.005 6.85-3.009 9.627-2.01 2.777-4.833 4.933-8.47 6.48-3.643 1.54-7.809 2.314-12.497 2.314-4.628 0-9.058-.694-13.283-2.083zm92.238-1.712c0 .86-.35 1.646-1.064 2.36-.708.708-1.52 1.065-2.447 1.065-.806 0-1.64-.37-2.499-1.111l-34.62-30.27v27.585c0 1.17-.345 2.11-1.02 2.824-.68.707-1.606 1.064-2.776 1.064-1.177 0-2.103-.357-2.777-1.064-.681-.714-1.019-1.653-1.019-2.824V6.158c0-1.171.338-2.117 1.019-2.824.674-.708 1.6-1.065 2.777-1.065 1.17 0 2.096.357 2.777 1.065.674.707 1.018 1.653 1.018 2.823v26.568L334.291 3.38c.675-.68 1.481-1.018 2.407-1.018.926 0 1.726.357 2.407 1.064.674.708 1.012 1.495 1.012 2.36 0 .927-.397 1.793-1.197 2.593l-29.9 26.29 31.56 27.585c.866.8 1.295 1.693 1.295 2.685zm74.133 1.71c-4.227-1.388-7.606-3.255-10.136-5.6-.926-.864-1.389-1.944-1.389-3.24 0-.864.247-1.62.741-2.268.494-.648 1.08-.972 1.759-.972.802 0 1.666.339 2.592 1.018 5.739 4.444 12.28 6.665 19.624 6.665 5.307 0 9.38-1.018 12.219-3.055 2.839-2.036 4.258-4.936 4.258-8.701 0-2.16-.679-3.903-2.036-5.23-1.358-1.327-3.148-2.391-5.369-3.194-2.222-.802-5.215-1.635-8.979-2.499-5.061-1.172-9.211-2.407-12.451-3.703-3.24-1.296-5.862-3.147-7.868-5.554-2.006-2.406-3.008-5.554-3.008-9.442 0-3.702 1.002-6.988 3.008-9.858 2.006-2.87 4.813-5.091 8.424-6.665 3.61-1.574 7.729-2.36 12.357-2.36 4.32 0 8.347.663 12.081 1.99 3.733 1.327 6.865 3.224 9.395 5.693.988.987 1.481 2.067 1.481 3.24 0 .864-.247 1.619-.74 2.267-.494.648-1.08.972-1.759.972-.679 0-1.574-.339-2.685-1.018-3.023-2.468-5.831-4.196-8.423-5.184-2.592-.987-5.709-1.481-9.35-1.481-5.122 0-9.102 1.065-11.941 3.194-2.839 2.129-4.258 5.107-4.258 8.933 0 3.27 1.25 5.723 3.749 7.359 2.499 1.635 6.341 3.07 11.525 4.304 5.616 1.358 10.028 2.608 13.237 3.749 3.209 1.142 5.878 2.854 8.007 5.138 2.129 2.283 3.194 5.338 3.194 9.164 0 3.641-1.003 6.85-3.009 9.627-2.005 2.777-4.829 4.937-8.47 6.48-3.641 1.543-7.806 2.314-12.496 2.314-4.629 0-9.057-.694-13.284-2.083z" fill="#25222b" fill-rule="nonzero"/><path d="M386.911 64.813V5.083a3.938 3.938 0 0 1 3.919-3.919 3.938 3.938 0 0 1 3.919 3.919v59.73a3.938 3.938 0 0 1-3.919 3.919 3.938 3.938 0 0 1-3.919-3.919z" fill="#7033cc" fill-rule="nonzero"/><path d="M376.949 19.657a3.92 3.92 0 0 0-3.919-3.919 3.92 3.92 0 0 0-3.919 3.919v45.156a3.92 3.92 0 0 0 3.919 3.919 3.92 3.92 0 0 0 3.919-3.919V19.657z" fill="#3f147b"/><path d="M359.131 38.609a3.92 3.92 0 0 0-3.919-3.919 3.92 3.92 0 0 0-3.919 3.919v26.204a3.92 3.92 0 0 0 3.919 3.919 3.92 3.92 0 0 0 3.919-3.919V38.609z" fill="#20004d"/></svg>