<svg xmlns="http://www.w3.org/2000/svg" viewBox="0 0 462.14 121.19"><defs><style>.cls-1{font-size:104.93px;font-family:SourceSansPro-Black,Source Sans Pro;font-weight:800;fill:#fff}.cls-2{fill:#fff;font-size:92.57px;font-family:Nunito-Regular,Nunito}</style></defs><g id="Camada_2" data-name="Camada 2"><g id="Camada_1-2" data-name="Camada 1"><text class="cls-1" transform="translate(0 87.09)">C</text><text class="cls-1" transform="translate(54.14 87.09)">O</text><text class="cls-1" transform="translate(120.46 87.09)">R</text><text class="cls-1" transform="translate(181.32 87.09)">E</text><text class="cls-2" transform="translate(238.65 85.62)">S</text><text class="cls-2" transform="translate(290.22 85.62)">K</text><text class="cls-2" transform="translate(405.03 85.62)">S</text><path d="M391.53 82.44V22.71a3.92 3.92 0 1 1 7.84 0v59.73a3.92 3.92 0 1 1-7.84 0z" fill="#fff"/><path d="M381.57 30.06a3.92 3.92 0 0 0-7.84 0v52.38a3.92 3.92 0 0 0 7.84 0z" opacity=".7" fill-rule="evenodd" fill="#fff"/><path d="M363.75 56.24a3.92 3.92 0 0 0-7.84 0v26.2a3.92 3.92 0 0 0 7.84 0z" opacity=".4" fill-rule="evenodd" fill="#fff"/></g></g></svg>